<svg xmlns="http://www.w3.org/2000/svg" width="152" height="26" viewBox="0 0 152 26">
    <g fill="none" fill-rule="evenodd">
        <g fill="#111314" fill-rule="nonzero">
            <g>
                <path d="M36.134 15.2c-.934-.982-2.065-1.626-3.38-1.952 1.294-.333 2.413-.983 3.353-1.971 1.403-1.473 2.1-3.32 2.116-5.533h-3.616c-.006 1.27-.366 2.307-1.08 3.12-.719.82-1.665 1.228-2.835 1.228-1.152 0-2.098-.412-2.836-1.228-.734-.81-1.1-1.85-1.106-3.12h-3.625c0 2.259.698 4.115 2.095 5.575.937.98 2.065 1.62 3.377 1.941-1.264.336-2.38.983-3.326 1.968-1.43 1.49-2.146 3.362-2.146 5.617h3.622l-.003-.027c0-1.279.363-2.334 1.082-3.16.72-.828 1.666-1.245 2.836-1.245 1.152 0 2.098.42 2.836 1.258.737.837 1.11 1.89 1.11 3.147 0 .01-.004.018-.004.027h3.616c0-.02.003-.036.003-.054.003-2.258-.692-4.12-2.089-5.59M4.798 10.107c-.75.837-1.13 1.904-1.13 3.204 0 1.3.386 2.362 1.157 3.193.771.828 1.778 1.24 3.02 1.24 1.261 0 2.268-.415 3.02-1.24.75-.828 1.131-1.893 1.131-3.193s-.387-2.367-1.158-3.204c-.77-.838-1.777-1.255-3.02-1.255-1.264 0-2.27.42-3.02 1.255m-1.019 9.526v6.152H0V5.745h3.583v1.441c1.13-1.13 2.672-1.693 4.628-1.693 2.28 0 4.109.72 5.49 2.162 1.382 1.439 2.074 3.307 2.074 5.602 0 2.24-.704 4.109-2.1 5.605-1.404 1.497-3.281 2.243-5.633 2.243-1.693-.003-3.114-.492-4.263-1.472M21.057 20.848h-3.785V5.744h3.785v15.104zm-1.893-16.06c-.62 0-1.154-.217-1.596-.646-.441-.435-.662-.959-.662-1.581 0-.641.22-1.182.662-1.624.442-.441.977-.662 1.596-.662.641 0 1.176.22 1.609.662.435.442.647.983.647 1.624 0 .62-.218 1.149-.647 1.58-.433.43-.97.648-1.609.648M45.99 8.683c-.94 0-1.708.278-2.298.834-.592.553-.937 1.276-1.03 2.162h6.829c-.094-.886-.45-1.602-1.074-2.162-.62-.56-1.427-.834-2.427-.834m7.37 5.84H42.577c.093.995.474 1.781 1.145 2.359.668.574 1.536.861 2.612.861 1.582 0 2.851-.75 3.813-2.258l2.793 1.693c-.526 1.11-1.34 2.044-2.44 2.794-1.1.752-2.488 1.13-4.163 1.13-2.315 0-4.184-.698-5.602-2.1-1.42-1.404-2.131-3.29-2.131-5.66 0-2.277.692-4.154 2.074-5.633 1.382-1.478 3.168-2.216 5.348-2.216 2.258 0 4.057.677 5.39 2.035 1.337 1.354 2.005 3.171 2.005 5.448-.006.598-.024 1.115-.06 1.548M55.084.215H58.869V20.849H55.084zM75.581 5.578c-1.58 0-2.841.544-3.785 1.635-.77-1.09-1.965-1.635-3.585-1.635-1.451 0-2.534.435-3.247 1.3V5.744h-3.785v15.101h3.785V11.39c0-.771.178-1.373.538-1.805.354-.43.865-.647 1.524-.647.64 0 1.133.214 1.481.647.348.435.523 1.016.523 1.75v9.511h3.785v-9.51c0-.717.172-1.298.523-1.736.348-.442.853-.662 1.509-.662.659 0 1.16.211 1.508.635.348.423.52 1.012.52 1.765v9.511h3.782v-9.964c0-1.581-.408-2.86-1.227-3.84-.816-.98-2.098-1.466-3.849-1.466zM94.295 7.156c-.45-.508-1.079-.913-1.877-1.212-.801-.3-1.66-.45-2.582-.45-2.298 0-4.16.734-5.59 2.203-1.43 1.47-2.143 3.332-2.143 5.59 0 2.334.713 4.218 2.143 5.66 1.43 1.442 3.295 2.161 5.59 2.161 1.091 0 2.026-.178 2.809-.538.783-.353 1.351-.762 1.708-1.212v1.493h3.525v-15.1h-3.586v1.405h.003zm-1.212 9.333c-.75.837-1.756 1.254-3.02 1.254-1.24 0-2.246-.417-3.02-1.254-.771-.838-1.158-1.905-1.158-3.205 0-1.279.384-2.337 1.142-3.174.762-.835 1.772-1.255 3.033-1.255 1.203 0 2.195.417 2.978 1.255.783.837 1.173 1.895 1.173 3.174.003 1.297-.378 2.367-1.128 3.205zM113.094 3.374h-3.785v2.37h-4.683v-2.37h-3.776v2.37h-1.412v3.193h1.412v8.102c0 2.636 1.345 3.954 4.036 3.954.375 0 .731-.015 1.058-.042.326-.027.58-.06.747-.1l.254-.054v-3.22h-.877c-.526 0-.901-.127-1.116-.384-.217-.254-.323-.662-.323-1.227V8.934h4.683v8.102c0 2.636 1.342 3.954 4.036 3.954.375 0 .732-.015 1.058-.042.327-.027.58-.06.747-.1l.254-.054v-3.22h-.877c-.526 0-.9-.127-1.116-.384-.217-.254-.323-.662-.323-1.227V8.93h2.316V5.744h-2.316v-2.37h.003zM123.693 5.493c-2.182 0-3.966.738-5.348 2.216-1.381 1.479-2.074 3.353-2.074 5.633 0 2.37.71 4.256 2.132 5.66 1.42 1.402 3.286 2.1 5.602 2.1 1.675 0 3.062-.378 4.163-1.13 1.1-.753 1.914-1.684 2.44-2.794l-2.794-1.693c-.961 1.506-2.231 2.258-3.812 2.258-1.076 0-1.944-.287-2.612-.861-.668-.575-1.052-1.36-1.146-2.358h10.784c.036-.43.054-.95.06-1.548 0-2.28-.668-4.094-2.004-5.448-1.336-1.355-3.135-2.035-5.39-2.035zm-3.367 6.183c.093-.886.438-1.606 1.03-2.162.593-.556 1.361-.834 2.301-.834 1 0 1.805.275 2.428.834.62.56.98 1.276 1.073 2.162h-6.832zM136.536 6.96V5.744h-3.785v15.101h3.785v-9.202c0-.675.151-1.18.45-1.509.3-.327.808-.493 1.524-.493h.959V5.687c-1.355.003-2.334.426-2.933 1.273zM150.301 13.327c-.574-.708-1.493-1.25-2.754-1.624-.263-.076-.62-.17-1.073-.281-.45-.115-.783-.2-.989-.254-.886-.245-1.327-.717-1.327-1.412 0-.375.139-.683.414-.919.272-.233.635-.35 1.085-.35 1.113 0 1.684.61 1.724 1.831h3.47c-.018-1.56-.468-2.748-1.354-3.555-.883-.81-2.134-1.212-3.752-1.212-1.505 0-2.742.414-3.712 1.24-.968.828-1.455 1.88-1.455 3.159 0 2.219 1.043 3.71 3.132 4.459.3.115 1.062.341 2.286.68.526.151.91.342 1.146.565.236.227.35.557.35.989 0 .432-.169.768-.504 1.004-.342.233-.765.35-1.273.35-1.225 0-1.832-.68-1.832-2.034h-3.613c-.054 1.47.342 2.684 1.2 3.643.856.961 2.256 1.442 4.19 1.442 1.56 0 2.867-.414 3.922-1.24 1.055-.828 1.58-1.974 1.58-3.443 0-1.321-.286-2.331-.86-3.038z" transform="translate(-24 -24) translate(24 24)"/>
            </g>
        </g>
    </g>
</svg>
